<svg width="1758" height="1743" viewBox="0 0 1758 1743" fill="none" xmlns="http://www.w3.org/2000/svg">
  <mask id="a" mask-type="alpha" maskUnits="userSpaceOnUse" x="0" y="0" width="1758" height="1743">
    <path d="M0 0h1758v1743H0V0z" fill="#000"/>
  </mask>
  <g mask="url(#a)">
    <path transform="rotate(45 1001.5 -279.351)" fill="url(#paint0_radial)" d="M1001.5-279.351h1069.25v1069.25H1001.5z"/>
    <g filter="url(#filter0_d)">
      <path fill="#fff" d="M323.544-164.818l361.962 361.962-361.962 361.963-361.962-361.963z"/>
    </g>
    <path transform="rotate(45 588.49 -101.083)" fill="url(#paint1_linear)" d="M588.49-101.083h142.25v142.25H588.49z"/>
    <path transform="rotate(45 -437.649 -165.351)" fill="url(#paint2_linear)" d="M-437.649-165.351h2002.53v691.339h-2002.53z"/>
    <path transform="rotate(45 -55.04 -545)" fill="url(#paint3_linear)" d="M-55.039-545h511.89v511.89h-511.89z"/>
  </g>
  <g clip-path="url(#clip0)">
    <path d="M62.643 243.575v-8.219a9.87 9.87 0 01.62-4.157 9.934 9.934 0 012.294-3.533 10.037 10.037 0 013.56-2.277 10.1 10.1 0 014.19-.614 9.94 9.94 0 017.872 2.656 9.804 9.804 0 012.375 3.506 9.74 9.74 0 01.667 4.172v8.466H62.643zm17.775-8.43c-.32-4.163-2.987-6.032-7.004-6.032a5.946 5.946 0 00-2.57.219c-.83.26-1.591.7-2.23 1.286a5.857 5.857 0 00-1.464 2.107 5.813 5.813 0 00-.419 2.525v3.81h13.367l.32-3.915zM66.73 217.473h4.55v-9.523h4.088v9.523h4.729v-10.581h4.23v15.167H62.643v-15.026h4.088v10.44z" fill="url(#paint4_linear)"/>
    <path d="M78.32 194.194c-1.707 0-2.489 2.116-3.555 4.691-1.28 3.739-2.489 6.561-6.506 6.561-2.915 0-5.936-2.505-5.936-7.619a7.545 7.545 0 011.723-5.111 7.655 7.655 0 014.711-2.684v4.409a3.234 3.234 0 00-1.885 1.307 3.192 3.192 0 00-.532 2.22c0 2.257.924 3.245 2.061 3.245 1.138 0 2.133-1.728 2.809-3.739 1.493-4.338 2.88-7.513 6.86-7.513a7.145 7.145 0 014.887 2.509 7.03 7.03 0 011.62 5.216 7.54 7.54 0 01-1.573 5.41 7.656 7.656 0 01-4.898 2.843v-4.55c1.778-.388 2.453-1.763 2.453-4.021 0-1.552-.462-3.174-2.24-3.174z" fill="url(#paint5_linear)"/>
    <path d="M84.328 182.625v4.409H62.642v-4.409h21.684z" fill="url(#paint6_linear)"/>
    <path d="M75.902 163.084v5.714h-3.981v-10.229h1.777a10.034 10.034 0 014.18.497 9.973 9.973 0 013.6 2.168 9.872 9.872 0 012.373 3.449 9.81 9.81 0 01.725 4.115 10.826 10.826 0 01-3.356 7.55 11 11 0 01-7.735 3.032 10.999 10.999 0 01-7.66-2.881 10.827 10.827 0 01-3.503-7.348 10.28 10.28 0 012.096-6.539 10.421 10.421 0 015.76-3.796v4.727a5.358 5.358 0 00-2.649 2.047 5.291 5.291 0 00-.905 3.208c.03.884.241 1.752.62 2.553a6.568 6.568 0 001.578 2.108 6.634 6.634 0 004.912 1.653 6.634 6.634 0 004.911-1.653 6.568 6.568 0 001.579-2.108 6.517 6.517 0 00.62-2.553 5.254 5.254 0 00-1.268-3.881 5.358 5.358 0 00-3.674-1.833z" fill="url(#paint7_linear)"/>
    <path d="M84.328 137.406v3.527l-13.722 10.582h13.722v4.232H62.642v-3.174l13.9-10.758h-13.9v-4.409h21.684z" fill="url(#paint8_linear)"/>
    <path d="M166.623 203.999h26.413c-2.351 11.535-8.705 21.886-17.954 29.252a50.95 50.95 0 01-32.667 11.064 53.185 53.185 0 01-20.388-4.116 52.84 52.84 0 01-17.204-11.609 52.362 52.362 0 01-11.353-17.299 52.05 52.05 0 01-3.74-20.307 52.192 52.192 0 013.706-20.361 52.523 52.523 0 0111.34-17.364 52.982 52.982 0 0117.215-11.675 53.32 53.32 0 0120.424-4.178c26.732 0 44.329 17.248 50.053 40.069h-25.987a23.908 23.908 0 00-8.941-12.972 24.234 24.234 0 00-15.125-4.664c-14.931 0-27.764 12.451-27.764 31.145s12.833 31.075 27.764 31.075a24.16 24.16 0 0015.332-4.769 23.835 23.835 0 008.876-13.291z" fill="url(#paint9_linear)"/>
    <path d="M304.731 139.099h43.726c33.309 0 51.582 21.199 51.582 51.568 0 31.744-17.348 52.167-50.622 52.167h-44.686V139.099zm44.792 81.372c18.059 0 25.667-11.569 25.667-29.804 0-17.46-8.496-29.17-26.733-29.17h-18.806v58.974h19.872z" fill="url(#paint10_linear)"/>
    <path d="M430.291 161.497v17.636H479.1v22.08h-48.809v19.117h52.115v22.363h-77.07V139.099h77.07v22.398h-52.115z" fill="url(#paint11_linear)"/>
    <path d="M299.507 190.984a51.967 51.967 0 01-4.013 20.018 52.295 52.295 0 01-11.428 16.97 52.758 52.758 0 01-17.104 11.339 53.088 53.088 0 01-20.174 3.981 53.09 53.09 0 01-20.175-3.981 52.768 52.768 0 01-17.104-11.339 52.31 52.31 0 01-11.428-16.97 51.967 51.967 0 01-4.013-20.018 51.959 51.959 0 014.013-20.017 52.29 52.29 0 0111.428-16.97 52.736 52.736 0 0117.104-11.339 53.072 53.072 0 0120.175-3.982 53.07 53.07 0 0120.174 3.982 52.725 52.725 0 0117.104 11.339 52.273 52.273 0 0111.428 16.97 51.959 51.959 0 014.013 20.017zm-24.884 0c0-18.694-12.834-31.145-27.764-31.145-14.931 0-27.764 12.451-27.764 31.145s12.762 31.075 27.693 31.075c14.93 0 27.764-12.416 27.764-31.075h.071z" fill="url(#paint12_linear)"/>
    <path d="M493.248 193.841a11.742 11.742 0 01-3.555-8.148 9.264 9.264 0 013.187-6.525 9.373 9.373 0 013.241-1.83 9.41 9.41 0 013.704-.427 8.97 8.97 0 016.925 2.358 8.84 8.84 0 012.133 3.054 8.788 8.788 0 01.682 3.653 11.307 11.307 0 01-1.985 5.465 11.424 11.424 0 01-4.449 3.776l5.866 6.172a7.573 7.573 0 001.35-4.338v-4.056h7.11v4.056a15.547 15.547 0 01-3.555 9.523l6.435 7.055h-8.461l-2.133-2.293a15.155 15.155 0 01-9.207 2.751c-7.465 0-12.62-4.903-12.62-10.581a11.424 11.424 0 011.424-5.508 11.53 11.53 0 013.908-4.157zm11.589 12.451l-7.109-7.724a6.248 6.248 0 00-2.098 2.055 6.213 6.213 0 00-.924 2.777 5.104 5.104 0 001.84 3.394 5.182 5.182 0 003.706 1.156 7.679 7.679 0 004.585-1.517v-.141zm-5.901-15.978c1.991-1.305 3.804-2.575 3.804-4.233a2.733 2.733 0 00-.772-2.05 2.799 2.799 0 00-2.036-.842 2.898 2.898 0 00-2.101.646 2.852 2.852 0 00-1.028 1.929 7.031 7.031 0 002.133 4.55z" fill="url(#paint13_linear)"/>
    <path d="M526.949 193.841a11.737 11.737 0 01-3.555-8.148 9.22 9.22 0 01.924-3.584 9.282 9.282 0 012.263-2.941 9.355 9.355 0 013.241-1.83 9.41 9.41 0 013.704-.427 8.965 8.965 0 016.925 2.358 8.84 8.84 0 012.133 3.054 8.788 8.788 0 01.682 3.653 11.303 11.303 0 01-2.11 5.423 11.432 11.432 0 01-4.538 3.677l5.866 6.172a7.581 7.581 0 001.351-4.338v-3.915h7.11v4.056a15.56 15.56 0 01-3.555 9.523l6.434 7.055h-8.461l-2.133-2.293a15.153 15.153 0 01-9.207 2.751c-7.465 0-12.62-4.903-12.62-10.581a11.427 11.427 0 011.517-5.542 11.541 11.541 0 014.029-4.123zm11.731 12.592l-7.11-7.724a6.254 6.254 0 00-2.097 2.055 6.2 6.2 0 00-.924 2.777 5.103 5.103 0 001.832 3.253 5.184 5.184 0 003.571 1.156 7.685 7.685 0 004.728-1.517zm-6.043-16.119c1.991-1.305 3.804-2.575 3.804-4.233a2.733 2.733 0 00-.773-2.05 2.792 2.792 0 00-2.036-.842 2.896 2.896 0 00-2.1.646 2.852 2.852 0 00-1.028 1.929 7.031 7.031 0 002.133 4.55z" fill="url(#paint14_linear)"/>
    <path d="M508.57 220.401h3.555l2.239 22.115h-4.585l-1.209-12.345-6.008 12.345h-2.56l-6.007-12.345-1.173 12.345H488.2l2.275-22.115h3.555l7.394 15.237 7.146-15.237z" fill="url(#paint15_linear)"/>
    <path d="M537.649 231.441a10.819 10.819 0 01-2.085 5.899 10.946 10.946 0 01-5.016 3.782 11.03 11.03 0 01-6.286.414 10.986 10.986 0 01-5.476-3.092 10.832 10.832 0 01-2.851-5.574 10.783 10.783 0 01.716-6.211 10.886 10.886 0 014.046-4.79 11.013 11.013 0 016.038-1.786c1.469.032 2.917.352 4.262.941a11.144 11.144 0 013.572 2.49 11.046 11.046 0 013.08 7.927zm-17.242 0a6.263 6.263 0 00.223 2.655 6.31 6.31 0 001.306 2.327 6.396 6.396 0 007.406 1.585 6.363 6.363 0 002.157-1.585 6.279 6.279 0 001.528-4.982 6.279 6.279 0 00-1.528-4.982 6.376 6.376 0 00-4.782-2.147 6.396 6.396 0 00-4.781 2.147 6.31 6.31 0 00-1.306 2.327 6.263 6.263 0 00-.223 2.655z" fill="url(#paint16_linear)"/>
    <path d="M554.179 224.563h-6.577v17.953h-4.585v-17.953h-6.541v-4.162h17.774l-.071 4.162z" fill="url(#paint17_linear)"/>
    <path d="M560.828 242.516h-4.586v-22.115h4.586v22.115z" fill="url(#paint18_linear)"/>
    <path d="M585.499 231.441a10.78 10.78 0 01-2.093 5.865c-1.261 1.71-3 3.015-5.001 3.754a10.99 10.99 0 01-6.257.404 10.943 10.943 0 01-5.449-3.08 10.794 10.794 0 01-2.84-5.547 10.75 10.75 0 01.704-6.182 10.856 10.856 0 014.018-4.777 10.98 10.98 0 016.004-1.795c1.469.033 2.917.352 4.262.941a11.144 11.144 0 013.572 2.49 11.046 11.046 0 013.08 7.927zm-17.206 0a6.266 6.266 0 001.469 5.059 6.35 6.35 0 002.17 1.621 6.4 6.4 0 007.476-1.621 6.266 6.266 0 001.469-5.059 6.267 6.267 0 00-1.469-5.059 6.35 6.35 0 00-2.17-1.621 6.4 6.4 0 00-7.476 1.621 6.267 6.267 0 00-1.469 5.059z" fill="url(#paint19_linear)"/>
    <path d="M607.147 242.516h-3.555l-10.664-14.108v14.108h-4.586v-22.115h3.306l11.091 14.109v-14.109h4.586l-.178 22.115z" fill="url(#paint20_linear)"/>
  </g>
  <defs>
    <linearGradient id="paint1_linear" x1="659.615" y1="-145.482" x2="659.615" y2="40.992" gradientUnits="userSpaceOnUse">
      <stop stop-color="#B9002C"/>
      <stop offset="1" stop-color="#FF14A1"/>
    </linearGradient>
    <linearGradient id="paint2_linear" x1="563.614" y1="-381.128" x2="563.614" y2="525.137" gradientUnits="userSpaceOnUse">
      <stop stop-color="#B9002C"/>
      <stop offset="1" stop-color="#FF14A1"/>
    </linearGradient>
    <linearGradient id="paint3_linear" x1="200.725" y1="-1192.06" x2="200.725" y2="-33.74" gradientUnits="userSpaceOnUse">
      <stop stop-color="red"/>
      <stop offset="1" stop-color="#5200FF"/>
    </linearGradient>
    <linearGradient id="paint4_linear" x1="73.485" y1="242.587" x2="73.485" y2="137.23" gradientUnits="userSpaceOnUse">
      <stop stop-color="#708394"/>
      <stop offset="1" stop-color="#8298AB"/>
    </linearGradient>
    <linearGradient id="paint5_linear" x1="132.109" y1="666.43" x2="132.109" y2="189.162" gradientUnits="userSpaceOnUse">
      <stop stop-color="#708394"/>
      <stop offset="1" stop-color="#8298AB"/>
    </linearGradient>
    <linearGradient id="paint6_linear" x1="73.485" y1="242.587" x2="73.485" y2="137.23" gradientUnits="userSpaceOnUse">
      <stop stop-color="#708394"/>
      <stop offset="1" stop-color="#8298AB"/>
    </linearGradient>
    <linearGradient id="paint7_linear" x1="132.012" y1="780.46" x2="132.012" y2="157.483" gradientUnits="userSpaceOnUse">
      <stop stop-color="#708394"/>
      <stop offset="1" stop-color="#8298AB"/>
    </linearGradient>
    <linearGradient id="paint8_linear" x1="73.485" y1="242.587" x2="73.485" y2="137.23" gradientUnits="userSpaceOnUse">
      <stop stop-color="#708394"/>
      <stop offset="1" stop-color="#8298AB"/>
    </linearGradient>
    <linearGradient id="paint9_linear" x1="141.384" y1="127.354" x2="141.384" y2="469.033" gradientUnits="userSpaceOnUse">
      <stop stop-color="#B900A5"/>
      <stop offset="1" stop-color="#FF1A14"/>
    </linearGradient>
    <linearGradient id="paint10_linear" x1="8082.75" y1="-156.545" x2="8082.75" y2="9892.23" gradientUnits="userSpaceOnUse">
      <stop stop-color="#B900A5"/>
      <stop offset="1" stop-color="#FF1A14"/>
    </linearGradient>
    <linearGradient id="paint11_linear" x1="8677.31" y1="-156.143" x2="8677.31" y2="9878.97" gradientUnits="userSpaceOnUse">
      <stop stop-color="#B900A5"/>
      <stop offset="1" stop-color="#FF1A14"/>
    </linearGradient>
    <linearGradient id="paint12_linear" x1="246.788" y1="135.607" x2="246.788" y2="244.985" gradientUnits="userSpaceOnUse">
      <stop stop-color="#FF8200"/>
      <stop offset="1" stop-color="#FF1A14"/>
    </linearGradient>
    <linearGradient id="paint13_linear" x1="4514.58" y1="1274.55" x2="4514.58" y2="603.436" gradientUnits="userSpaceOnUse">
      <stop stop-color="#708394"/>
      <stop offset="1" stop-color="#8298AB"/>
    </linearGradient>
    <linearGradient id="paint14_linear" x1="4855.41" y1="1274.55" x2="4855.41" y2="603.436" gradientUnits="userSpaceOnUse">
      <stop stop-color="#708394"/>
      <stop offset="1" stop-color="#8298AB"/>
    </linearGradient>
    <linearGradient id="paint15_linear" x1="3717.9" y1="872.587" x2="3717.9" y2="473.844" gradientUnits="userSpaceOnUse">
      <stop stop-color="#708394"/>
      <stop offset="1" stop-color="#8298AB"/>
    </linearGradient>
    <linearGradient id="paint16_linear" x1="3375.55" y1="860.827" x2="3375.55" y2="469.081" gradientUnits="userSpaceOnUse">
      <stop stop-color="#708394"/>
      <stop offset="1" stop-color="#8298AB"/>
    </linearGradient>
    <linearGradient id="paint17_linear" x1="2951.51" y1="872.587" x2="2951.51" y2="473.844" gradientUnits="userSpaceOnUse">
      <stop stop-color="#708394"/>
      <stop offset="1" stop-color="#8298AB"/>
    </linearGradient>
    <linearGradient id="paint18_linear" x1="1196.38" y1="872.587" x2="1196.38" y2="473.844" gradientUnits="userSpaceOnUse">
      <stop stop-color="#708394"/>
      <stop offset="1" stop-color="#8298AB"/>
    </linearGradient>
    <linearGradient id="paint19_linear" x1="3707.63" y1="858.746" x2="3707.63" y2="468.272" gradientUnits="userSpaceOnUse">
      <stop stop-color="#708394"/>
      <stop offset="1" stop-color="#8298AB"/>
    </linearGradient>
    <linearGradient id="paint20_linear" x1="3447.02" y1="872.587" x2="3447.02" y2="473.844" gradientUnits="userSpaceOnUse">
      <stop stop-color="#708394"/>
      <stop offset="1" stop-color="#8298AB"/>
    </linearGradient>
    <radialGradient id="paint0_radial" cx="0" cy="0" r="1" gradientUnits="userSpaceOnUse" gradientTransform="rotate(24.09 769.837 2680.596) scale(1288.88)">
      <stop stop-color="#FF8200"/>
      <stop offset=".67" stop-color="#FF1A14"/>
    </radialGradient>
    <clipPath id="clip0">
      <path fill="#fff" d="M62.323 137.406h544.826v106.909H62.323z"/>
    </clipPath>
    <filter id="filter0_d" x="-61.033" y="-179.209" width="769.155" height="769.155" filterUnits="userSpaceOnUse" color-interpolation-filters="sRGB">
      <feFlood flood-opacity="0" result="BackgroundImageFix"/>
      <feColorMatrix in="SourceAlpha" type="matrix" values="0 0 0 0 0 0 0 0 0 0 0 0 0 0 0 0 0 0 127 0"/>
      <feOffset dy="8.224"/>
      <feGaussianBlur stdDeviation="11.308"/>
      <feColorMatrix type="matrix" values="0 0 0 0 0 0 0 0 0 0 0 0 0 0 0 0 0 0 0.25 0"/>
      <feBlend mode="normal" in2="BackgroundImageFix" result="effect1_dropShadow"/>
      <feBlend mode="normal" in="SourceGraphic" in2="effect1_dropShadow" result="shape"/>
    </filter>
  </defs>
</svg>
